PathFileType	4	(X/Y/Z)	C:/Users/opensim2020/Desktop/walking_exp_matlab/subject01_walking13_straight_02.trc																																																																																																																												
DataRate	CameraRate	NumFrames	NumMarkers	Units	OrigDataRate	OrigDataStartFrame	OrigNumFrames																																																																																																																								
100	100	5	42	mm	100	1153	172																																																																																																																								
Frame#	Time	LFHD			RFHD			LBHD			RBHD			C7			T10			CLAV			STRN			RBAK			LSHO			LUPA			LELB			LFRM			LWRA			LWRB			LFIN			RSHO			RUPA			RELB			RFRM			RWRA			RWRB			RFIN			LASI			RASI			LPSI			RPSI			LTHI			LKNE			LTIB			LANK			LHEE			LTOE			RTHI			RKNE			RTIB			RANK			RHEE			RTOE			*39			*40			*41		
		X1	Y1	Z1	X2	Y2	Z2	X3	Y3	Z3	X4	Y4	Z4	X5	Y5	Z5	X6	Y6	Z6	X7	Y7	Z7	X8	Y8	Z8	X9	Y9	Z9	X10	Y10	Z10	X11	Y11	Z11	X12	Y12	Z12	X13	Y13	Z13	X14	Y14	Z14	X15	Y15	Z15	X16	Y16	Z16	X17	Y17	Z17	X18	Y18	Z18	X19	Y19	Z19	X20	Y20	Z20	X21	Y21	Z21	X22	Y22	Z22	X23	Y23	Z23	X24	Y24	Z24	X25	Y25	Z25	X26	Y26	Z26	X27	Y27	Z27	X28	Y28	Z28	X29	Y29	Z29	X30	Y30	Z30	X31	Y31	Z31	X32	Y32	Z32	X33	Y33	Z33	X34	Y34	Z34	X35	Y35	Z35	X36	Y36	Z36	X37	Y37	Z37	X38	Y38	Z38	X39	Y39	Z39	X40	Y40	Z40	X41	Y41	Z41	X42	Y42	Z42
																																																																																																																															
65	0.64	-437.6539	1670.38281	-1480.67249	-414.36044	1667.8053	-1369.93091	-555.02032	1632.16528	-1464.97791	-533.61591	1628.26196	-1346.7179	-600.72144	1434.88452	-1433.06604	-642.00134	1140.75513	-1430.3042	-458.86511	1364.44629	-1438.88025	-416.22433	1211.07544	-1449.45117	-657.02222	1238.03271	-1359.12805	-528.20923	1400.31421	-1596.31958	-596.52142	1235.09912	-1686.6637	-627.57611	1085.69812	-1707.13647	-543.86053	999.57788	-1726.55017	-419.11026	940.84833	-1702.94995	-464.10165	907.85272	-1725.24121	-389.76324	872.96069	-1738.67456	-519.37708	1389.07056	-1284.82178	-582.70789	1192.2605	-1183.55139	-584.46472	1064.7738	-1178.66821	-538.55011	949.18109	-1158.45728	-441.35245	851.54462	-1191.55371	-481.27499	840.45813	-1151.1604	-425.44022	779.2641	-1152.31824	-469.5416	936.60559	-1547.83093	-456.03534	939.90918	-1331.04224	-651.04456	940.82672	-1488.45313	-641.76886	946.80237	-1344.23706	-437.87735	610.90991	-1616.42395	-424.10236	480.12265	-1610.79797	-565.96289	368.45773	-1602.97717	-720.79706	216.05081	-1545.55847	-761.83105	221.01765	-1482.60291	-656.04645	82.96069	-1567.21729	-492.27151	602.11865	-1279.24658	-477.36819	443.39157	-1308.10498	-541.41199	277.84268	-1298.85071	-591.78442	78.57622	-1345.69763	-647.61292	42.67189	-1391.21313	-453.61621	37.00307	-1353.05042	-425.48682	1703.36218	-1388.72766	-1973.03479	1023.53864	3102.02319	-2012.51477	1021.93488	3140.75635
66	0.65	-424.77679	1670.67639	-1481.1925	-401.57401	1668.14673	-1370.41846	-542.21234	1632.70276	-1465.547	-520.8302	1628.84192	-1347.19226	-588.17584	1435.4248	-1432.9574	-629.66577	1141.37805	-1429.51099	-446.45624	1365.08167	-1439.23242	-403.79846	1211.74109	-1449.78674	-644.32349	1238.84338	-1358.17603	-516.32959	1400.78809	-1596.41223	-586.03613	1235.76062	-1686.00635	-619.0166	1086.43872	-1704.77722	-538.81525	996.96387	-1724.3877	-416.27838	933.47009	-1701.7887	-462.7261	902.22412	-1723.48669	-389.91342	864.05054	-1737.12366	-506.56799	1390.29211	-1284.82959	-569.13593	1193.44165	-1182.97852	-569.83875	1065.60583	-1178.04907	-520.07233	951.25378	-1159.26685	-419.65588	857.44263	-1194.4989	-458.55585	844.62122	-1153.90405	-400.67786	785.45941	-1156.06152	-457.73026	937.62592	-1547.46362	-444.17471	940.03583	-1330.72473	-638.99017	942.11536	-1488.43335	-629.82568	947.91107	-1344.27161	-420.20795	614.29834	-1616.90344	-403.92303	483.30429	-1610.5354	-542.26532	366.40878	-1601.95325	-689.7793	206.8038	-1544.36902	-731.75598	209.14136	-1481.69263	-616.3985	78.99944	-1565.55164	-486.02405	601.97656	-1279.30664	-474.14694	443.06543	-1308.19836	-539.89441	278.09222	-1298.76904	-591.78369	78.83648	-1345.52454	-647.34363	43.44125	-1391.27319	-453.39893	36.86812	-1353.03711	-412.68091	1703.68018	-1389.26062	-1973.07227	1023.52155	3101.9187	-2012.47217	1022.02539	3140.8042
67	0.66	-411.96045	1670.77063	-1481.90649	-388.77753	1668.47327	-1371.15662	-529.51996	1632.94153	-1466.2157	-508.06717	1629.26013	-1347.88037	-575.54956	1435.86743	-1432.93945	-617.2038	1141.78296	-1428.68018	-434.02695	1365.4386	-1439.67822	-391.42648	1212.1853	-1450.2467	-631.53284	1239.46973	-1357.19299	-504.42773	1401.06824	-1596.64917	-575.47626	1236.10132	-1685.28162	-610.37451	1086.96838	-1702.47266	-533.64716	994.48932	-1722.43896	-413.51459	926.24762	-1700.72046	-461.40894	896.71729	-1721.59058	-390.27396	855.50897	-1735.78613	-493.5444	1391.08569	-1285.08435	-555.55444	1194.42004	-1182.5874	-555.28333	1066.34888	-1177.28601	-501.44315	953.27441	-1160.21509	-398.23575	863.43018	-1197.50732	-436.21048	848.91211	-1156.60083	-376.05804	791.86462	-1159.92883	-446.07462	938.29016	-1547.05652	-432.42349	939.8197	-1330.49731	-627.01563	943.25513	-1488.3656	-617.82556	948.82166	-1344.26306	-402.73041	617.35486	-1617.29541	-384.45078	486.28116	-1610.18188	-518.20251	363.23398	-1601.31543	-657.87598	196.81485	-1543.41943	-700.50391	196.61229	-1480.95361	-576.15753	74.70998	-1564.33008	-479.65619	601.73541	-1279.39478	-471.00854	442.59531	-1308.06873	-538.05872	278.44839	-1298.74963	-590.92255	78.93894	-1345.34924	-647.18982	44.37135	-1391.37561	-453.68185	36.45447	-1353.27466	-399.78647	1703.95593	-1390.06055	-1972.98901	1024.07422	3101.97974	-2012.43738	1021.99731	3140.89258
68	0.67	-399.33423	1670.71301	-1482.72546	-376.14368	1668.57239	-1372.00854	-516.8819	1632.901	-1466.99976	-495.39453	1629.39453	-1348.61633	-562.84808	1436.00769	-1432.8866	-604.76953	1142.04004	-1427.91235	-421.53674	1365.54382	-1440.25122	-379.09106	1212.24866	-1450.69409	-618.71588	1239.95203	-1356.18005	-492.39993	1400.97827	-1596.88269	-564.84955	1236.10645	-1684.64026	-601.58533	1087.15051	-1700.1051	-528.41376	992.07318	-1720.59717	-410.80908	919.20026	-1699.6145	-460.0043	891.51312	-1720.04822	-390.73068	847.48767	-1734.60156	-480.42377	1391.74207	-1285.40405	-542.11462	1195.28528	-1182.19214	-540.67377	1066.96191	-1176.67737	-483.21558	955.35071	-1161.20886	-377.1174	869.47266	-1200.63684	-414.08649	853.29877	-1159.34766	-351.97549	798.57074	-1163.84399	-433.67795	939.4538	-1546.90161	-420.57538	939.36005	-1330.36414	-615.09137	944.13635	-1488.15198	-605.87701	949.50568	-1344.07007	-385.68561	620.10638	-1617.55811	-365.44342	489.14557	-1609.83862	-493.95575	359.22821	-1601.07178	-625.11066	186.23717	-1542.75586	-667.92816	183.31653	-1480.42029	-535.61444	70.72065	-1564.14526	-473.17316	601.42096	-1279.48584	-468.10928	442.24948	-1307.7478	-536.75012	278.90692	-1298.80066	-590.36322	79.71468	-1345.51135	-646.88855	45.29991	-1391.48425	-453.50208	36.55321	-1353.33972	-387.12686	1704.10901	-1391.01025	-1973.07068	1023.90222	3102.06787	-2012.51477	1021.92102	3140.74561
69	0.68	-386.79608	1670.505	-1483.67761	-363.47806	1668.65295	-1372.91028	-504.34131	1632.64404	-1467.9657	-482.7641	1629.40161	-1349.43872	-550.17944	1436.06128	-1433.05627	-592.32892	1142.16675	-1427.23987	-408.9357	1365.35876	-1440.82507	-366.664	1211.99011	-1451.19421	-605.83472	1240.21411	-1355.25745	-480.39386	1400.7334	-1597.30591	-554.18555	1235.83423	-1683.96997	-592.77686	1087.21375	-1697.95801	-523.06195	989.64294	-1718.86877	-408.11081	912.28198	-1698.50854	-458.42432	886.47699	-1718.52881	-391.08127	839.70062	-1733.48535	-467.1756	1392.05981	-1285.87402	-528.48468	1195.84363	-1181.71204	-526.02222	1067.39026	-1176.01379	-464.29669	957.35614	-1162.29529	-356.3392	875.45795	-1203.78638	-392.28516	857.67932	-1162.2616	-328.20917	805.37476	-1167.93945	-421.84525	939.69427	-1546.80847	-408.94226	938.52643	-1330.22009	-603.24982	944.72192	-1487.94434	-593.93628	949.92773	-1343.90295	-368.96274	622.73608	-1617.96277	-346.77686	491.52841	-1609.24255	-469.3302	354.52213	-1601.08984	-591.38312	175.22351	-1542.21619	-634.20673	169.33717	-1479.75989	-494.34363	66.96296	-1564.58386	-466.65924	601.14642	-1279.58728	-465.34033	442.15775	-1307.69556	-535.43597	279.19995	-1298.73181	-590.22937	80.33858	-1345.69019	-645.96796	46.26465	-1391.39417	-453.73303	36.31416	-1353.27295	-374.71753	1704.05774	-1391.995	-1973.12305	1023.71887	3102.05444	-2012.58606	1022.05634	3140.70947
